<svg xmlns="http://www.w3.org/2000/svg" viewBox="0 0 720 980" role="img" aria-label="Receipt paper texture">
  <defs>
    <pattern id="paper" width="18" height="18" patternUnits="userSpaceOnUse">
      <rect width="18" height="18" fill="#fffdf8"/>
      <circle cx="2" cy="4" r="1" fill="#d9d3c4" opacity="0.38"/>
      <circle cx="13" cy="11" r="1" fill="#d9d3c4" opacity="0.26"/>
    </pattern>
  </defs>
  <path d="M44 24h632v894l-38 26-42-26-42 26-42-26-42 26-42-26-42 26-42-26-42 26-42-26-42 26-42-26-42 26-48-26Z" fill="url(#paper)" stroke="#d9d3c4" stroke-width="4"/>
  <path d="M108 154h504M108 246h504M108 338h504M108 430h504M108 522h504M108 614h504M108 706h504" stroke="#d9d3c4" stroke-width="3" stroke-dasharray="18 16"/>
  <rect x="108" y="74" width="230" height="34" rx="17" fill="#123d35" opacity="0.12"/>
  <rect x="382" y="74" width="126" height="34" rx="17" fill="#d6a23f" opacity="0.3"/>
</svg>
