<svg xmlns="http://www.w3.org/2000/svg" viewBox="0 0 900 620" role="img" aria-label="Satellite proof terrain">
  <defs>
    <linearGradient id="sky" x1="0" x2="1" y1="0" y2="1">
      <stop offset="0" stop-color="#123d35"/>
      <stop offset="0.56" stop-color="#426e7f"/>
      <stop offset="1" stop-color="#607a55"/>
    </linearGradient>
    <radialGradient id="glow" cx="68%" cy="32%" r="46%">
      <stop offset="0" stop-color="#d6a23f" stop-opacity="0.72"/>
      <stop offset="0.42" stop-color="#d6a23f" stop-opacity="0.18"/>
      <stop offset="1" stop-color="#d6a23f" stop-opacity="0"/>
    </radialGradient>
    <pattern id="grid" width="42" height="42" patternUnits="userSpaceOnUse">
      <path d="M42 0H0v42" fill="none" stroke="#fffdf8" stroke-opacity="0.16" stroke-width="1"/>
    </pattern>
  </defs>
  <rect width="900" height="620" rx="28" fill="url(#sky)"/>
  <rect width="900" height="620" rx="28" fill="url(#grid)"/>
  <rect width="900" height="620" rx="28" fill="url(#glow)"/>
  <path d="M0 428c96-42 158-118 262-112 94 5 135 78 225 60 116-24 140-170 260-184 69-8 117 27 153 64v364H0Z" fill="#17211d" opacity="0.34"/>
  <path d="M0 468c94-26 161-52 250-34 105 21 140 82 246 74 111-8 150-89 244-84 68 4 113 42 160 82v114H0Z" fill="#fffdf8" opacity="0.14"/>
  <path d="M148 152 320 92l168 54 176-72 128 76-166 78-146-48-176 68Z" fill="#f7f5ef" opacity="0.13"/>
  <path d="M186 398 346 346l118 38 148-68 126 46-122 74-152-38-132 64Z" fill="#f7f5ef" opacity="0.1"/>
  <circle cx="602" cy="212" r="14" fill="#d6a23f"/>
  <circle cx="602" cy="212" r="54" fill="none" stroke="#d6a23f" stroke-opacity="0.48" stroke-width="2"/>
  <circle cx="602" cy="212" r="96" fill="none" stroke="#d6a23f" stroke-opacity="0.24" stroke-width="2"/>
  <path d="M602 212 742 142" stroke="#d6a23f" stroke-width="3" stroke-linecap="round"/>
  <path d="M602 212 492 330" stroke="#d6a23f" stroke-width="3" stroke-linecap="round"/>
</svg>
